<?xml version="1.0" encoding="UTF-8"?>
<svg xmlns="http://www.w3.org/2000/svg" width="438.81" height="182.09" version="1.1" viewBox="0 0 438.81 182.09"><metadata><c2pa:manifest xmlns:c2pa="http://c2pa.org/manifest">AAA0RGp1bWIAAAAeanVtZGMycGEAEQAQgAAAqgA4m3EDYzJwYQAAADQeanVtYgAAAEdqdW1kYzJtYQARABCAAACqADibcQN1cm46dXVpZDozNTdiM2JjMi05YjZhLTQzMDgtYmRjNC0wYjk5MzI4MGRmMjIAAAABtGp1bWIAAAApanVtZGMyYXMAEQAQgAAAqgA4m3EDYzJwYS5hc3NlcnRpb25zAAAAANdqdW1iAAAAJmp1bWRjYm9yABEAEIAAAKoAOJtxA2MycGEuYWN0aW9ucwAAAACpY2JvcqFnYWN0aW9uc4GjZmFjdGlvbmtjMnBhLmVkaXRlZG1zb2Z0d2FyZUFnZW50bUFkb2JlIEZpcmVmbHlxZGlnaXRhbFNvdXJjZVR5cGV4U2h0dHA6Ly9jdi5pcHRjLm9yZy9uZXdzY29kZXMvZGlnaXRhbHNvdXJjZXR5cGUvY29tcG9zaXRlV2l0aFRyYWluZWRBbGdvcml0aG1pY01lZGlhAAAArGp1bWIAAAAoanVtZGNib3IAEQAQgAAAqgA4m3EDYzJwYS5oYXNoLmRhdGEAAAAAfGNib3KlamV4Y2x1c2lvbnOBomVzdGFydBjXZmxlbmd0aBlFsGRuYW1lbmp1bWJmIG1hbmlmZXN0Y2FsZ2ZzaGEyNTZkaGFzaFgg9QVeLpw9GasFoyMpDETyuB7PtXh3j303Sqi49dAuQghjcGFkSQAAAAAAAAAAAAAAAgtqdW1iAAAAJGp1bWRjMmNsABEAEIAAAKoAOJtxA2MycGEuY2xhaW0AAAAB32Nib3KoaGRjOnRpdGxlb0dlbmVyYXRlZCBJbWFnZWlkYzpmb3JtYXRtaW1hZ2Uvc3ZnK3htbGppbnN0YW5jZUlEeCx4bXA6aWlkOmEyMzVlNjhmLTE2ODQtNDMzNC1iMWUzLWI2YmEwNGJhZDIzNm9jbGFpbV9nZW5lcmF0b3J4NkFkb2JlX0lsbHVzdHJhdG9yLzI4LjYgYWRvYmVfYzJwYS8wLjcuNiBjMnBhLXJzLzAuMjUuMnRjbGFpbV9nZW5lcmF0b3JfaW5mb4G/ZG5hbWVxQWRvYmUgSWxsdXN0cmF0b3JndmVyc2lvbmQyOC42/2lzaWduYXR1cmV4GXNlbGYjanVtYmY9YzJwYS5zaWduYXR1cmVqYXNzZXJ0aW9uc4KiY3VybHgnc2VsZiNqdW1iZj1jMnBhLmFzc2VydGlvbnMvYzJwYS5hY3Rpb25zZGhhc2hYIEppwb3/qN5BMHi+JO3M+DE6wdFklTRWcaANawazN9SvomN1cmx4KXNlbGYjanVtYmY9YzJwYS5hc3NlcnRpb25zL2MycGEuaGFzaC5kYXRhZGhhc2hYICQS9h/PjbNPOwFhprfb329kxmabZ2ke4ldlmOI56M0PY2FsZ2ZzaGEyNTYAADAQanVtYgAAAChqdW1kYzJjcwARABCAAACqADibcQNjMnBhLnNpZ25hdHVyZQAAAC/gY2JvctKEWQzvogE4JBghglkGPTCCBjkwggQhoAMCAQICEBWN/yesI9K4JUtOYzceHZ4wDQYJKoZIhvcNAQELBQAwdTELMAkGA1UEBhMCVVMxIzAhBgNVBAoTGkFkb2JlIFN5c3RlbXMgSW5jb3Jwb3JhdGVkMR0wGwYDVQQLExRBZG9iZSBUcnVzdCBTZXJ2aWNlczEiMCAGA1UEAxMZQWRvYmUgUHJvZHVjdCBTZXJ2aWNlcyBHMzAeFw0yNDEwMTUwMDAwMDBaFw0yNTEwMTUyMzU5NTlaMIGrMRMwEQYDVQQDDApBZG9iZSBDMlBBMSgwJgYDVQQLDB9Db250ZW50IEF1dGhlbnRpY2l0eSBJbml0aWF0aXZlMRMwEQYDVQQKDApBZG9iZSBJbmMuMREwDwYDVQQHDAhTYW4gSm9zZTETMBEGA1UECAwKQ2FsaWZvcm5pYTELMAkGA1UEBhMCVVMxIDAeBgkqhkiG9w0BCQEWEWNhaS1vcHNAYWRvYmUuY29tMIIBIjANBgkqhkiG9w0BAQEFAAOCAQ8AMIIBCgKCAQEAwxDBgdB9PXLpMXPw5oNgYkFWDPP1aSfth9TZPINOtOQlhp1v4h+hMxZWFjkZ3RJRuoSBrsSSYBaEfiDMKisi/sOxuFHKBV//l1rv3SrjrixANXIlqjGdIYydaMaFa/5ovFz/m4+SUz0ccYzqw+vSAzuRySGnpgm8Gmj+SEJcL/GIHzqU9bUy3NsizY2oY28yj32rbkOqeADSM51OqIJKloEBFFexzMunzpU+K2sLqheoR8FJMaR0fGXa/gqRzhkiBFhwUhLPS9s6+TCnz09UZMlXbdG/iFKj3UPFUDjqh0wtFgcz24DrUlaWeiltKHouymBHuirzvmOG0VtSPepxOQIDAQABo4IBjDCCAYgwDAYDVR0TAQH/BAIwADAOBgNVHQ8BAf8EBAMCB4AwHgYDVR0lBBcwFQYJKoZIhvcvAQEMBggrBgEFBQcDBDCBjgYDVR0gBIGGMIGDMIGABgkqhkiG9y8BAgMwczBxBggrBgEFBQcCAjBlDGNZb3UgYXJlIG5vdCBwZXJtaXR0ZWQgdG8gdXNlIHRoaXMgTGljZW5zZSBDZXJ0aWZpY2F0ZSBleGNlcHQgYXMgcGVybWl0dGVkIGJ5IHRoZSBsaWNlbnNlIGFncmVlbWVudC4wXQYDVR0fBFYwVDBSoFCgToZMaHR0cDovL3BraS1jcmwuc3ltYXV0aC5jb20vY2FfN2E1YzNhMGM3MzExNzQwNmFkZDE5MzEyYmMxYmMyM2YvTGF0ZXN0Q1JMLmNybDA3BggrBgEFBQcBAQQrMCkwJwYIKwYBBQUHMAGGG2h0dHA6Ly9wa2ktb2NzcC5zeW1hdXRoLmNvbTAfBgNVHSMEGDAWgBRXKXoyTcz+5DVOwB8kc85zU6vfajANBgkqhkiG9w0BAQsFAAOCAgEAqrl6FLQ+c9LYaf0igyTgErNL9XmmieiT3ohKFevJ3BN7kWkZD1znbVw3XnX5tgQaKq+AiSCldNxYEKqU+Rq9Lr26GGglBSA0s/Ds2kw+2LlnTmojAHCH3CvVRbhGHHrashmnfgwmF1TSkaWk7NxEhbt9wQoiEMkLSQeM4S4Cu+176FzEdy+zzkDkRWqeSOQO/qG2WRto/vIq30ECf6v6FtazJI1CWIqhBK5oJioSNbLsCVJhar3Uca9D11ujeZW4k2jPCsnzriTmFqVftd3k2SXUQg7wQcQcXfKBItWZt8ztn0IYoZzJa1x9l9dvXKAJvNsDoz4uDerS8z9rzLsEQvzL1yPbTp4+/6mTTAWsoaDtmkZgm3X+sffPX3XzMFmfzIHiYfUja5nKK2bs4P71tit/1U/FD2xdlpzZSupRqCMGz+UTeXI8IrN5ZR/+F8rSsmRAStjnggz/wDucwcDlJbY4/RKq3BrAi4LamLMIfwo/dbL55TDlIOd7HCfmSgabc1WO0Kji3LW/VZnP9VG8WiUG+WqtN1OQIAZmFUOWdXQGLag+I1OaZ1BXJDNsJiXcg2TGNBSEPo44Akfn9MzFGKyB5UurMN4NH0qlamhrhKiV0+b73Fjx330P/frxBmzx5NpAQhNKksx+F4z1S8Ay1o2TBIkkeAFbDzy8f/FxuytZBqUwggahMIIEiaADAgECAhAMqLZUe4nm0gaJdc2Lm4niMA0GCSqGSIb3DQEBCwUAMGwxCzAJBgNVBAYTAlVTMSMwIQYDVQQKExpBZG9iZSBTeXN0ZW1zIEluY29ycG9yYXRlZDEdMBsGA1UECxMUQWRvYmUgVHJ1c3QgU2VydmljZXMxGTAXBgNVBAMTEEFkb2JlIFJvb3QgQ0EgRzIwHhcNMTYxMTI5MDAwMDAwWhcNNDExMTI4MjM1OTU5WjB1MQswCQYDVQQGEwJVUzEjMCEGA1UEChMaQWRvYmUgU3lzdGVtcyBJbmNvcnBvcmF0ZWQxHTAbBgNVBAsTFEFkb2JlIFRydXN0IFNlcnZpY2VzMSIwIAYDVQQDExlBZG9iZSBQcm9kdWN0IFNlcnZpY2VzIEczMIICIjANBgkqhkiG9w0BAQEFAAOCAg8AMIICCgKCAgEAtx8uvb0Js1xIbP4Mg65sAepReCWkgD6Jp7GyiGTa9ol2gfn5HfOV/HiYjZiOz+TuHFU+DXNad86xEqgVeGVMlvIHGe/EHcKBxvEDXdlTXB5zIEkfl0/SGn7J6vTX8MNybfSi95eQDUOZ9fjCaq+PBFjS5ZfeNmzi/yR+MsA0jKKoWarSRCFFFBpUFQWfAgLyXOyxOnXQOQudjxNj6Wu0X0IB13+IH11WcKcWEWXM4j4jh6hLy29Cd3EoVG3oxcVenMF/EMgD2tXjx4NUbTNB1/g9+MR6Nw5Mhp5k/g3atNExAxhtugC+T3SDShSEJfs2quiiRUHtX3RhOcK1s1OJgT5s2s9xGy5/uxVpcAIaK2KiDJXW3xxN8nXPmk1NSVu/mxtfapr4TvSJbhrU7UA3qhQY9n4On2sbH1X1Tw+7LTek8KCA5ZDghOERPiIp/Jt893qov1bE5rJkagcVg0Wqjh89NhCaBA8VyRt3ovlGyCKdNV2UL3bn5vdFsTk7qqmp9makz1/SuVXYxIf6L6+8RXOatXWaPkmucuLE1TPOeP7S1N5JToFCs80l2D2EtxoQXGCR48K/cTUR5zV/fQ+hdIOzoo0nFn77Y8Ydd2k7/x9BE78pmoeMnw6VXYfXCuWEgj6p7jpbLoxQMoWMCVzlg72WVNhJFlSw4aD8fc6ezeECAwEAAaOCATQwggEwMBIGA1UdEwEB/wQIMAYBAf8CAQAwNQYDVR0fBC4wLDAqoCigJoYkaHR0cDovL2NybC5hZG9iZS5jb20vYWRvYmVyb290ZzIuY3JsMA4GA1UdDwEB/wQEAwIBBjAUBgNVHSUEDTALBgkqhkiG9y8BAQcwVwYDVR0gBFAwTjBMBgkqhkiG9y8BAgMwPzA9BggrBgEFBQcCARYxaHR0cHM6Ly93d3cuYWRvYmUuY29tL21pc2MvcGtpL3Byb2Rfc3ZjZV9jcHMuaHRtbDAkBgNVHREEHTAbpBkwFzEVMBMGA1UEAxMMU1lNQy00MDk2LTMzMB0GA1UdDgQWBBRXKXoyTcz+5DVOwB8kc85zU6vfajAfBgNVHSMEGDAWgBSmHOFtVCRMqI9Icr9uqYzV5Owx1DANBgkqhkiG9w0BAQsFAAOCAgEAcc7lB4ym3C3cyOA7ZV4AkoGV65UgJK+faThdyXzxuNqlTQBlOyXBGFyevlm33BsGO1mDJfozuyLyT2+7IVxWFvW5yYMV+5S1NeChMXIZnCzWNXnuiIQSdmPD82TEVCkneQpFET4NDwSxo8/ykfw6Hx8fhuKz0wjhjkWMXmK3dNZXIuYVcbynHLyJOzA+vWU3sH2T0jPtFp7FN39GZne4YG0aVMlnHhtHhxaXVCiv2RVoR4w1QtvKHQpzfPObR53Cl74iLStGVFKPwCLYRSpYRF7J6vVS/XxW4LzvN2b6VEKOcvJmN3LhpxFRl3YYzW+dwnwtbuHW6WJlmjffbLm1MxLFGlG95aCz31X8wzqYNsvb9+5AXcv8Ll69tLXmO1OtsY/3wILNUEp4VLZTE3wqm3n8hMnClZiiKyZCS7L4E0mClbx+BRSMH3eVo6jgve41/fK3FQM4QCNIkpGs7FjjLy+ptC+JyyWqcfvORrFV/GOgB5hD+G5ghJcIpeigD/lHsCRYsOa5sFdqREhwIWLmSWtNwfLZdJ3dkCc7yRpm3gal6qRfTkYpxTNxxKyvKbkaJDoxR9vtWrC3iNrQd9VvxC3TXtuzoHbqumeqgcAqefWF9u6snQ4Q9FkXzeuJArNuSvPIhgBjVtggH0w0vm/lmCQYiC/Y12GeCxfgYlL33bujZnNpZ1RzdKFpdHN0VG9rZW5zgaFjdmFsWQ45MIIONTADAgEAMIIOLAYJKoZIhvcNAQcCoIIOHTCCDhkCAQMxDzANBglghkgBZQMEAgEFADCBggYLKoZIhvcNAQkQAQSgcwRxMG8CAQEGCWCGSAGG/WwHATAxMA0GCWCGSAFlAwQCAQUABCBuJyYzu8s8XSXPrwGCmENBe6xrTYBpTq4XhZFXm28QzQIRAMTXTGRzdtjnWTaf05LICDMYDzIwMjUwNjA1MDgyNTAyWgIIdLUJ8RCjJ8mgggvAMIIFCjCCAvKgAwIBAgIQDAsvx3p4z7rtZVZUwZokAzANBgkqhkiG9w0BAQsFADBjMQswCQYDVQQGEwJVUzEXMBUGA1UEChMORGlnaUNlcnQsIEluYy4xOzA5BgNVBAMTMkRpZ2lDZXJ0IFRydXN0ZWQgRzQgUlNBNDA5NiBTSEEyNTYgVGltZVN0YW1waW5nIENBMB4XDTI0MTEyMDAwMDAwMFoXDTM2MDIxOTIzNTk1OVowWzELMAkGA1UEBhMCVVMxETAPBgNVBAoTCERpZ2lDZXJ0MTkwNwYDVQQDEzBFQ0MyNTZfU0hBMjU2X1RpbWVzdGFtcF9SZXNwb25kZXJfQWRvYmVfTk9WXzIwMjQwWTATBgcqhkjOPQIBBggqhkjOPQMBBwNCAATQ/B6F+IGYpiqQQLxOfqkUmeTmSRWZzxSCtwM82siW/SbXazktRyEWmwIVs+8PJjhV9C4fUJ23IGRxsfzJM8leo4IBizCCAYcwDgYDVR0PAQH/BAQDAgeAMAwGA1UdEwEB/wQCMAAwFgYDVR0lAQH/BAwwCgYIKwYBBQUHAwgwIAYDVR0gBBkwFzAIBgZngQwBBAIwCwYJYIZIAYb9bAcBMB8GA1UdIwQYMBaAFLoW2W1NhS9zKXaaL3WMaiCPnshvMB0GA1UdDgQWBBTs0RxvfOegTeQxP4cACNSt1H02uzBaBgNVHR8EUzBRME+gTaBLhklodHRwOi8vY3JsMy5kaWdpY2VydC5jb20vRGlnaUNlcnRUcnVzdGVkRzRSU0E0MDk2U0hBMjU2VGltZVN0YW1waW5nQ0EuY3JsMIGQBggrBgEFBQcBAQSBgzCBgDAkBggrBgEFBQcwAYYYaHR0cDovL29jc3AuZGlnaWNlcnQuY29tMFgGCCsGAQUFBzAChkxodHRwOi8vY2FjZXJ0cy5kaWdpY2VydC5jb20vRGlnaUNlcnRUcnVzdGVkRzRSU0E0MDk2U0hBMjU2VGltZVN0YW1waW5nQ0EuY3J0MA0GCSqGSIb3DQEBCwUAA4ICAQCi7MEg8nkvLauLI7cAj21DgnMErh0mntCt4c4tsW9yJQZdZv1n8E1dueayb6IiZ8mYambImrTeuVKwGqUSITZTiVhtFRP3zRD9DpFk+Ex4P010IStH/eD1lgK6bVfaY0gvzcIRQP3CwIzqBZAE81c5QINjPs81cvJLOFKd/cX7zOhoQvrziNDy15UNT5fuURe2fioANQsRNYOmVXAdg2TK7OktYD+EH/D8gWr7nHQhRJMuD54GNjiZnNPnYXz6F3j7Bu2aVlirvQGAAsrW27Lqhg9ksW5+aL+g9/lyqRoMrWLSy4KDQaztPB+PKskecO1R7dbJbw7UBFVl+GbGaUc4x6HvVLNNL5hHjiLrf9A4zxe52e9ZqpSU7kDu7dsRXvm+uLLMXjHFSx/j0stIcxnQHwOL4A5RRuUH1Xw1wz2CiGvIHNcoYrkqfkb6TsKJU7ntDqNKFKZ349sBErTdXwVoId4zS/cV/A5rO1Kw5aNO/zUTCtQkbcMg88XGWqImaYmIHhIvHaE1nRdPWCa0QhrxvioeP45p4/zqd/JrVbNsoEuEBSRIPB3+ViLaoFlimZRUePzwKYvyTrd6g72mVtF4Prbbvy1kqCUmsZDMFqn33DR0N8Qzqkzir3bufNyI5k95Rq3NXcbfNYDx9qZ8gjCu4NHtSxAdJKswzb9gi6jyFTCCBq4wggSWoAMCAQICEAc2N7ckVHzYR6z9KGYqXlswDQYJKoZIhvcNAQELBQAwYjELMAkGA1UEBhMCVVMxFTATBgNVBAoTDERpZ2lDZXJ0IEluYzEZMBcGA1UECxMQd3d3LmRpZ2ljZXJ0LmNvbTEhMB8GA1UEAxMYRGlnaUNlcnQgVHJ1c3RlZCBSb290IEc0MB4XDTIyMDMyMzAwMDAwMFoXDTM3MDMyMjIzNTk1OVowYzELMAkGA1UEBhMCVVMxFzAVBgNVBAoTDkRpZ2lDZXJ0LCBJbmMuMTswOQYDVQQDEzJEaWdpQ2VydCBUcnVzdGVkIEc0IFJTQTQwOTYgU0hBMjU2IFRpbWVTdGFtcGluZyBDQTCCAiIwDQYJKoZIhvcNAQEBBQADggIPADCCAgoCggIBAMaGNQZJs8E9cklRVcclA8TykTepl1Gh1tKD0Z5Mom2gsMyD+Vr2EaFEFUJfpIjzaPp985yJC3+dH54PMx9QEwsmc5Zt+FeoAn39Q7SE2hHxc7Gz7iuAhIoiGN/r2j3EF3+rGSs+QtxnjupRPfDWVtTnKC3r07G1decfBmWNlCnT2exp39mQh0YAe9tEQYncfGpXevA3eZ9drMvohGS0UvJ2R/dhgxndX7RUCyFobjchu0CsX7LeSn3O9TkSZ+8OpWNs5KbFHc02DVzV5huowWR0QKfAcsW6Th+xtVhNef7Xj3OTrCw54qVI1vCwMROpVymWJy71h6aPTnYVVSZwmCZ/oBpHIEPjQ2OAe3VuJyWQmDo4EbP29p7mO1vsgd4iFNmCKseSv6De4z6ic/rnH1pslPJSlRErWHRAKKtzQ87fSqEcazjFKfPKqpZzQmiftkaznTqj1QPgv/CiPMpC3BhIfxQ0z9JMq++bPf4OuGQq+nUoJEHtQr8FnGZJUlD0UfM2SU2LINIsVzV5K6jzRWC8I41Y99xh3pP+OcD5sjClTNfpmEpYPtMDiP6zj9NeS3YSUZPJjAw7W4oiqMEmCPkUEBIDfV8ju2TjY+Cm4T72wnSyPx4JduyrXUZ14mCjWAkBKAAOhFTuzuldyF4wEr1GnrXTdrnSDmuZDNIztM2xAgMBAAGjggFdMIIBWTASBgNVHRMBAf8ECDAGAQH/AgEAMB0GA1UdDgQWBBS6FtltTYUvcyl2mi91jGogj57IbzAfBgNVHSMEGDAWgBTs1+OC0nFdZEzfLmc/57qYrhwPTzAOBgNVHQ8BAf8EBAMCAYYwEwYDVR0lBAwwCgYIKwYBBQUHAwgwdwYIKwYBBQUHAQEEazBpMCQGCCsGAQUFBzABhhhodHRwOi8vb2NzcC5kaWdpY2VydC5jb20wQQYIKwYBBQUHMAKGNWh0dHA6Ly9jYWNlcnRzLmRpZ2ljZXJ0LmNvbS9EaWdpQ2VydFRydXN0ZWRSb290RzQuY3J0MEMGA1UdHwQ8MDowOKA2oDSGMmh0dHA6Ly9jcmwzLmRpZ2ljZXJ0LmNvbS9EaWdpQ2VydFRydXN0ZWRSb290RzQuY3JsMCAGA1UdIAQZMBcwCAYGZ4EMAQQCMAsGCWCGSAGG/WwHATANBgkqhkiG9w0BAQsFAAOCAgEAfVmOwJO2b5ipRCIBfmbW2CFC4bAYLhBNE88wU86/GPvHUF3iSyn7cIoNqilp/GnBzx0H6T5gyNgL5Vxb122H+oQgJTQxZ822EpZvxFBMYh0MCIKoFr2pVs8Vc40BIiXOlWk/R3f7cnQU1/+rT4osequFzUNf7WC2qk+RZp4snuCKrOX9jLxkJodskr2dfNBwCnzvqLx1T7pa96kQsl3p/yhUifDVinF2ZdrM8HKjI/rAJ4JErpknG6skHibBt94q6/aesXmZgaNWhqsKRcnfxI2g55j7+6adcq/Ex8HBanHZxhOACcS2n82HhyS7T6NJuXdmkfFynOlLAlKnN36TU6w7HQhJD5TNOXrd/yVjmScsPT9rp/Fmw0HNT7ZAmyEhQNC3EyTN3B14OuSereU0cZLXJmvkOHOrpgFPvT87eK1MrfvElXvtCl8zOYdBeHo46Zzh3SP9HSjTx/no8Zhf+yvYfvJGnXUsHicsJttvFXseGYs2uJPU5vIXmVnKcPA3v5gA3yAWTyf7YGcWoWa63VXAOimGsJigK+2VQbc61RWYMbRiCQ8KvYHZE/6/pNHzV9m8BPqC3jLfBInwAM1dwvnQI38AC+R2AibZ8GV2QqYphwlHK+Z/GqSFD/yYlvZVVCsfgPrA8g4r5db7qS9EFUrnEw4d2zc4GqEr9u3WfPwxggG4MIIBtAIBATB3MGMxCzAJBgNVBAYTAlVTMRcwFQYDVQQKEw5EaWdpQ2VydCwgSW5jLjE7MDkGA1UEAxMyRGlnaUNlcnQgVHJ1c3RlZCBHNCBSU0E0MDk2IFNIQTI1NiBUaW1lU3RhbXBpbmcgQ0ECEAwLL8d6eM+67WVWVMGaJAMwDQYJYIZIAWUDBAIBBQCggdEwGgYJKoZIhvcNAQkDMQ0GCyqGSIb3DQEJEAEEMBwGCSqGSIb3DQEJBTEPFw0yNTA2MDUwODI1MDJaMCsGCyqGSIb3DQEJEAIMMRwwGjAYMBYEFPcTAlRkG5zO0lEtYsW/nymEjPz4MC8GCSqGSIb3DQEJBDEiBCCas/dXKM7godzZcSWl0EIKXn+dEXB5khVWEK0nfIV4kzA3BgsqhkiG9w0BCRACLzEoMCYwJDAiBCC5eiZoHRjpuXxjPvhIOWRVdZeW2lBDRCyPjM3lJ+AAqTAKBggqhkjOPQQDAgRHMEUCIFqUKELFPNgCyt2NkvpHvTVlUc+ChVWZmW6+TEQJTeVkAiEA1hqx6PJek9KRrP8BOwng1s6BEPT12Gn/JECPYfbB335lclZhbHOhaG9jc3BWYWxzgVkI2DCCCNQKAQCgggjNMIIIyQYJKwYBBQUHMAEBBIIIujCCCLYwgZ6iFgQUwInWh4c8r+kVkHt3cpwO637c0rQYDzIwMjUwNTMxMjExODA3WjBzMHEwSTAJBgUrDgMCGgUABBS733Mle9sjosdOiV3f/BGFqJuLAQQUVyl6Mk3M/uQ1TsAfJHPOc1Or32oCEBWN/yesI9K4JUtOYzceHZ6AABgPMjAyNTA1MzEyMTE4MDdaoBEYDzIwMjUwNjA3MjExODA3WjANBgkqhkiG9w0BAQsFAAOCAgEAzK5VgP2J3iURdXOKgPELYTGc++RwbhVtQ9sF2Dm9AlIDRfrlnQIIpsxuvtyzi1OLpy7mkMpGdDukw9nEz6pLt4QNGQ6KQCuw09b8Knk3AeWDofApgy6ywLv5+E7bW1qi56AYb2qkFfqhVpYD8A7yXtWzMti+/6llAtLKbe/g8bLPBdv4YFWO5+/Oq0l5lyOmu8MNt2SrKH840d5IABEjcpwXPLM2R92bNiK9etb6/2VWXP58djLnZ3Aby74ompE2Ie91rQxWZdWzI3bQdgtIEfUfIJ7roX1Hk4RNjNwjz5DAyK1ImK8Ozj+o8QUP5EPD2JYOQNhaYk0Tt1yMFxeG4FOKXqy7R5UPplNCD7x4tD3CLF6pw7mlVpIkL0zgm6lOwamWagVJClJc045HSGBm9ixWi/G66DiglGO/EbmhMUqeiCYswbqIqAgPFyN0E6YwwrU4f3ecN+dFTIbGELDlujLB6q+5a9rAga5P/6iy3VdYdD40K3QOFvAb6y1qFRz9zfgpHb4M/caWfbdRd4hJ6LDpe93tq+dRkJhj2U+TH+9AByJCfa/bjXN3T3/sdgtAqVuT2kVtKriuDpi8tvg3TKGKEj5uVAn+xVAqQczOlhk10TVyjEsLMdFiMUei07xWf40bD8IpWwzsdK/VZtsVujuxbjf3rRCK/EX3IXSrXN2gggX9MIIF+TCCBfUwggPdoAMCAQICFDfjuBHfR7UQaogtwq2EhK5NeRvXMA0GCSqGSIb3DQEBCwUAMHUxCzAJBgNVBAYTAlVTMSMwIQYDVQQKExpBZG9iZSBTeXN0ZW1zIEluY29ycG9yYXRlZDEdMBsGA1UECxMUQWRvYmUgVHJ1c3QgU2VydmljZXMxIjAgBgNVBAMTGUFkb2JlIFByb2R1Y3QgU2VydmljZXMgRzMwHhcNMjUwNDMwMjAyODA5WhcNMjUwNzI5MjAyODA5WjB6MQswCQYDVQQGEwJVUzEjMCEGA1UEChMaQWRvYmUgU3lzdGVtcyBJbmNvcnBvcmF0ZWQxRjBEBgNVBAMTPUFkb2JlIFByb2R1Y3QgU2VydmljZXMgRzMgT0NTUCBSZXNwb25kZXIgMjAyNS0wNC0zMFQyMDoyODowOVowggIiMA0GCSqGSIb3DQEBAQUAA4ICDwAwggIKAoICAQDi/P8ee1NNSp4MLYKuU1A4Omp6H12bldipKqbt+TfI6U0xv/rZQFOYmFj/R1nqfx/mpnMe0p0KiA1UftirJVDL1JYiKzJ1dKpxYHa0fHpaLct9dNjTIF/mVypDz7yDG3N58WhmTRnp1u/7u1YDCza2bRsRJUZEbEwUykCcIW3jY1PQ8lgHKsHgZk13CeTY4xzenLFJdgW5W5eDfU9luH2rP1GWtZ4azvb3ls6U6YOpKxJFM+vH+IoDhGw5GOZ22hnzm2ppOTiInPCcRo5AJHbt0K5hUBB9KbrykkhfW8sLLcAJY7vRZcTsEC7ujSDlr+CMi7BkdBib17pDXOuofBNkD/7oGwSjcU6aJ+dyIvcVU818UL36GcofeKaRHpncBAEpVAKxjVlf0shm0HtDTYZsBeWsNeWi+nlwh/QNd3h1nytc3HyDtfcHctibP/JbQ4NjRH5/lIutGVcV30RK851/mclI1o9gxJQXAaYmjMUJfL+w7WjEfigoUkZsZ2AGMsszWw2ztpch0JVJf+Fmy5JN5NJW8DRif5cR1HO2bzVna/Jt9P0qwHOPxkU+6ppNgfWu7RvKwhKzj33+hvC3zdwPcYi+gaY4OrEqniQZUpELVuNoP+1AvXRWarTYoKHGIxTAdXs3PzhBcm4kW5Zx2EbYmQBpHBlv5OOAN/ZVnFYEwQIDAQABo3gwdjAdBgNVHQ4EFgQUwInWh4c8r+kVkHt3cpwO637c0rQwHwYDVR0jBBgwFoAUVyl6Mk3M/uQ1TsAfJHPOc1Or32owDgYDVR0PAQH/BAQDAgeAMBMGA1UdJQQMMAoGCCsGAQUFBwMJMA8GCSsGAQUFBzABBQQCBQAwDQYJKoZIhvcNAQELBQADggIBAG7zq9cReFQVy1Vdjr7CZMVXBdR0tH+g73N/IYOUGqyoxyrpnd9nk7Ds3s4V9HPK6YMq8uSWz2sQxte0tzP9+TN1tI7dox5IrJGzfxeJSA3sXnRxPcSxpOgJKQtq8G7uCQLdy4ddRr+1lOno/Ll2XxZSqyL/FC08oWiDB/bGqFbF11PHbQuSyARDQfAF/I/ZHYptOVhVQgBvs5IXLZL+6+s/QnQGcRFeed3C1vMfiarSkn6fnbH3pYb7HQaw7e/zm3GcbAZC1HswotnbdPE9qwFZzuVJlxbtabc9IuwyLyIHYmxnzaWgggBPB5v/MdNZeP2DuHoELvJiKoGXxuN8O95GV2mDeiljyC8/EYoMnpXrRst5YWxrWtgyKiQ0fS46yOtZf8xUXhujwMMs0zrkTHGp6QVaXtGy+TeMnORZsCmWbnrcgTPRQMT4vp95J/sQI/Y0KhSZqyvnbSRGEECS/OwFjeMEnrfyZQrPejtil5agUN6fIgj9cwpMXiTSsRzfGBrzw5hZuNUTFEvf9Z4c6JPt/zjoaxr/w4Nf2SooPS32snzy9Oba7qpDYKqOl4dv2D4p8TwvihUvfGW4xvBFoEdDESMRfJtGfVv5S/7Xhlz8t7aUZkMnHgmOx18CiWS6ksQfDx/j5MZZ7ROhs4rURbI8jgfiKmNX+iGMv1d35dsFY3BhZFkKmAAAAAAAAAAAAAAAAAAAAAAAAAAAAAAAAAAAAAAAAAAAAAAAAAAAAAAAAAAAAAAAAAAAAAAAAAAAAAAAAAAAAAAAAAAAAAAAAAAAAAAAAAAAAAAAAAAAAAAAAAAAAAAAAAAAAAAAAAAAAAAAAAAAAAAAAAAAAAAAAAAAAAAAAAAAAAAAAAAAAAAAAAAAAAAAAAAAAAAAAAAAAAAAAAAAAAAAAAAAAAAAAAAAAAAAAAAAAAAAAAAAAAAAAAAAAAAAAAAAAAAAAAAAAAAAAAAAAAAAAAAAAAAAAAAAAAAAAAAAAAAAAAAAAAAAAAAAAAAAAAAAAAAAAAAAAAAAAAAAAAAAAAAAAAAAAAAAAAAAAAAAAAAAAAAAAAAAAAAAAAAAAAAAAAAAAAAAAAAAAAAAAAAAAAAAAAAAAAAAAAAAAAAAAAAAAAAAAAAAAAAAAAAAAAAAAAAAAAAAAAAAAAAAAAAAAAAAAAAAAAAAAAAAAAAAAAAAAAAAAAAAAAAAAAAAAAAAAAAAAAAAAAAAAAAAAAAAAAAAAAAAAAAAAAAAAAAAAAAAAAAAAAAAAAAAAAAAAAAAAAAAAAAAAAAAAAAAAAAAAAAAAAAAAAAAAAAAAAAAAAAAAAAAAAAAAAAAAAAAAAAAAAAAAAAAAAAAAAAAAAAAAAAAAAAAAAAAAAAAAAAAAAAAAAAAAAAAAAAAAAAAAAAAAAAAAAAAAAAAAAAAAAAAAAAAAAAAAAAAAAAAAAAAAAAAAAAAAAAAAAAAAAAAAAAAAAAAAAAAAAAAAAAAAAAAAAAAAAAAAAAAAAAAAAAAAAAAAAAAAAAAAAAAAAAAAAAAAAAAAAAAAAAAAAAAAAAAAAAAAAAAAAAAAAAAAAAAAAAAAAAAAAAAAAAAAAAAAAAAAAAAAAAAAAAAAAAAAAAAAAAAAAAAAAAAAAAAAAAAAAAAAAAAAAAAAAAAAAAAAAAAAAAAAAAAAAAAAAAAAAAAAAAAAAAAAAAAAAAAAAAAAAAAAAAAAAAAAAAAAAAAAAAAAAAAAAAAAAAAAAAAAAAAAAAAAAAAAAAAAAAAAAAAAAAAAAAAAAAAAAAAAAAAAAAAAAAAAAAAAAAAAAAAAAAAAAAAAAAAAAAAAAAAAAAAAAAAAAAAAAAAAAAAAAAAAAAAAAAAAAAAAAAAAAAAAAAAAAAAAAAAAAAAAAAAAAAAAAAAAAAAAAAAAAAAAAAAAAAAAAAAAAAAAAAAAAAAAAAAAAAAAAAAAAAAAAAAAAAAAAAAAAAAAAAAAAAAAAAAAAAAAAAAAAAAAAAAAAAAAAAAAAAAAAAAAAAAAAAAAAAAAAAAAAAAAAAAAAAAAAAAAAAAAAAAAAAAAAAAAAAAAAAAAAAAAAAAAAAAAAAAAAAAAAAAAAAAAAAAAAAAAAAAAAAAAAAAAAAAAAAAAAAAAAAAAAAAAAAAAAAAAAAAAAAAAAAAAAAAAAAAAAAAAAAAAAAAAAAAAAAAAAAAAAAAAAAAAAAAAAAAAAAAAAAAAAAAAAAAAAAAAAAAAAAAAAAAAAAAAAAAAAAAAAAAAAAAAAAAAAAAAAAAAAAAAAAAAAAAAAAAAAAAAAAAAAAAAAAAAAAAAAAAAAAAAAAAAAAAAAAAAAAAAAAAAAAAAAAAAAAAAAAAAAAAAAAAAAAAAAAAAAAAAAAAAAAAAAAAAAAAAAAAAAAAAAAAAAAAAAAAAAAAAAAAAAAAAAAAAAAAAAAAAAAAAAAAAAAAAAAAAAAAAAAAAAAAAAAAAAAAAAAAAAAAAAAAAAAAAAAAAAAAAAAAAAAAAAAAAAAAAAAAAAAAAAAAAAAAAAAAAAAAAAAAAAAAAAAAAAAAAAAAAAAAAAAAAAAAAAAAAAAAAAAAAAAAAAAAAAAAAAAAAAAAAAAAAAAAAAAAAAAAAAAAAAAAAAAAAAAAAAAAAAAAAAAAAAAAAAAAAAAAAAAAAAAAAAAAAAAAAAAAAAAAAAAAAAAAAAAAAAAAAAAAAAAAAAAAAAAAAAAAAAAAAAAAAAAAAAAAAAAAAAAAAAAAAAAAAAAAAAAAAAAAAAAAAAAAAAAAAAAAAAAAAAAAAAAAAAAAAAAAAAAAAAAAAAAAAAAAAAAAAAAAAAAAAAAAAAAAAAAAAAAAAAAAAAAAAAAAAAAAAAAAAAAAAAAAAAAAAAAAAAAAAAAAAAAAAAAAAAAAAAAAAAAAAAAAAAAAAAAAAAAAAAAAAAAAAAAAAAAAAAAAAAAAAAAAAAAAAAAAAAAAAAAAAAAAAAAAAAAAAAAAAAAAAAAAAAAAAAAAAAAAAAAAAAAAAAAAAAAAAAAAAAAAAAAAAAAAAAAAAAAAAAAAAAAAAAAAAAAAAAAAAAAAAAAAAAAAAAAAAAAAAAAAAAAAAAAAAAAAAAAAAAAAAAAAAAAAAAAAAAAAAAAAAAAAAAAAAAAAAAAAAAAAAAAAAAAAAAAAAAAAAAAAAAAAAAAAAAAAAAAAAAAAAAAAAAAAAAAAAAAAAAAAAAAAAAAAAAAAAAAAAAAAAAAAAAAAAAAAAAAAAAAAAAAAAAAAAAAAAAAAAAAAAAAAAAAAAAAAAAAAAAAAAAAAAAAAAAAAAAAAAAAAAAAAAAAAAAAAAAAAAAAAAAAAAAAAAAAAAAAAAAAAAAAAAAAAAAAAAAAAAAAAAAAAAAAAAAAAAAAAAAAAAAAAAAAAAAAAAAAAAAAAAAAAAAAAAAAAAAAAAAAAAAAAAAAAAAAAAAAAAAAAAAAAAAAAAAAAAAAAAAAAAAAAAAAAAAAAAAAAAAAAAAAAAAAAAAAAAAAAAAAAAAAAAAAAAAAAAAAAAAAAAAAAAAAAAAAAAAAAAAAAAAAAAAAAAAAAAAAAAAAAAAAAAAAAAAAAAAAAAAAAAAAAAAAAAAAAAAAAAAAAAAAAAAAAAAAAAAAAAAAAAAAAAAAAAAAAAAAAAAAAAAAAAAAAAAAAAAAAAAAAAAAAAAAAAAAAAAAAAAAAAAAAAAAAAAAAAAAAAAAAAAAAAAAAAAAAAAAAAAAAAAAAAAAAAAAAAAAAAAAAAAAAAAAAAAAAAAAAAAAAAAAAAAAAAAAAAAAAAAAAAAAAAAAAAAAAAAAAAAAAAAAAAAAAAAAAAAAAAAAAAAAAAAAAAAAAAAAAAAAAAAAAAAAAAAAAAAAAAAAAAAAAAAAAAAAAAAAAAAAAAAAAAAAAAAAAAAAAAAAAAAAAAAAAAAAAAAAAAAAAAAAAAAAAAAAAAAAAAAAAAAAAAAAAAAAAAAAAAAAAAAAAAAAAAAAAAAAAAAAAAAAAAAAAAAAAAAAAAAAAAAAAAAAAAAAAAAAAAAAAAAAAAAAAAAAAAAAAAAAAAAAAAAAAAAAAAAAAAAAAAAAAAAAAAAAAAAAAAAAAAAAAAAAAAAAAAAAAAAAAAAAAAAAAAAAAAAAAAAAAAAAAAAAAAAAAAAAAAAAAAAAAAAAAAAAAAAAAAAAAAAAAAAAAAAAAAAAAAAAAAAAAAAAAAAAAAAAAAAAAAAAAAAAAAAAAAAAAAAAAAAAAAAAAAAAAAAAAAAAAAAAAAAAAAAAAAAAAAAAAAAAAAAAAAAAAAAAAAAAAAAAAAAAAAAAAAAAAAAAAAAAAAAAAAAAAAAAAAAAAAPZZAQCt+0Z0j+gfR5IdLhmdk8L98wECzlvJoQ2coBMAn1BlajSAh6qj0cztE/4H1A7vkMKmChHBJPZLxUj9u+asMBWVz6cX+H6wkJGQhfTHEkfMoeE5wsrdE4VRBCXmjCDAOkCv4M/QofihLJsWOk6hCDRpMCYWNUE3Us8XtZTFMhQW62BsfkOqIlTfA6yrtIMNtSoIQOnbPT08F8CSQ+KUHDzygkWRpGsrnHkMzpcK3XRUqGza/y/5yU0Jt2KtQQnpOBtMxXaFX4kiVney2lUulC4V1pdeJygzTLxaH8pBRzW5MBBatjN5MRhPTR3OJ9IyvnDt2voGZrfq+VUwrEQAajWX</c2pa:manifest></metadata>
  <!-- Generator: Adobe Illustrator 28.6.0, SVG Export Plug-In . SVG Version: 1.2.0 Build 709)  -->
  <g>
    <g id="Laag_1">
      <g id="Generatief_object">
        <g>
          <g>
            <path d="M87.99,121.76l-.1.12c5.06,13.48-7.99,19.1-13.63,4.46l-.1.06c1.14,6.67.21,14.93,1.16,21.87.49,3.6,2.27,13.31,3.48,16.44.42,1.09.79,1.49,1.97,1.76,3.05.7,4.77-3.19,8.01-4.18,2.3-.7,5.43-.05,6.9-.51.79-.25,2.24-2.03,3.03-2.66,1.73-1.38,3.47-2.44,5.71-2.65.04,0,.1.06.14.06,2.17-.18,6.24.25,6.05-3.32-.05-1-8.45-14.68-9.67-16.32-3.86-5.17-9.13-10-12.94-15.12Z" fill="#ffab66"/>
            <path d="M81.49,167.55c-.3,0-.62-.03-.94-.11-1.64-.38-2.19-1.09-2.68-2.37-1.29-3.33-3.06-13.19-3.54-16.66-.46-3.37-.49-7.06-.51-10.63-.03-3.83-.06-7.79-.64-11.21-.07-.41.12-.82.48-1.03l.1-.06c.25-.15.56-.18.83-.08.28.1.5.31.6.58,2.63,6.81,6.8,8.78,9.56,7.73,2.84-1.08,4.5-5.37,2.21-11.49-.13-.34-.06-.73.18-1.01l.1-.12c.2-.23.49-.37.79-.34.3.01.58.16.77.4,1.87,2.51,4.16,5.01,6.37,7.43,2.27,2.48,4.61,5.05,6.58,7.69.1.13,9.78,15.23,9.87,16.87.06,1.15-.24,2.09-.88,2.8-1.25,1.37-3.38,1.45-5.1,1.52-.35.01-.68.03-.98.05-.11.01-.23,0-.35-.04-2,.24-3.56,1.3-4.96,2.41-.23.19-.6.56-.95.92-1,1.02-1.71,1.7-2.4,1.92-.81.26-1.86.24-3.07.22-1.28-.02-2.72-.05-3.84.29-1.18.36-2.18,1.22-3.16,2.05-1.25,1.07-2.64,2.26-4.43,2.26ZM75.67,131.21c.12,2.16.13,4.37.15,6.55.03,3.5.05,7.13.5,10.37.53,3.91,2.28,13.26,3.42,16.21.32.84.45.96,1.27,1.14,1.2.28,2.16-.47,3.62-1.72,1.08-.92,2.3-1.96,3.87-2.45,1.42-.44,3.03-.41,4.46-.38.99.02,1.93.03,2.43-.12.3-.12,1.13-.96,1.57-1.41.41-.42.8-.81,1.13-1.08,1.6-1.28,3.6-2.62,6.24-2.86.12,0,.25,0,.38.04.25-.02.54-.03.84-.04,1.34-.05,3.02-.12,3.7-.87.26-.29.38-.7.37-1.27-.53-1.56-8.2-14.14-9.48-15.86-1.91-2.56-4.22-5.09-6.45-7.53-1.26-1.38-2.55-2.79-3.78-4.22.67,5.13-1.45,8.73-4.44,9.87-2.85,1.08-6.74,0-9.79-4.38Z" fill="#458bb9"/>
          </g>
          <g>
            <g>
              <path d="M74.26,126.34c5.65,14.64,18.7,9.02,13.63-4.46l.1-.12c-3.07-4.11-5.42-17.07-9.09-19.5-4.4-2.91-9.78-.88-11.22,4.19-1.05,3.69,5.16,14.85,6.31,19.25l.05.07c.08.19.15.38.22.57Z" fill="#ffab66"/>
              <path d="M83.3,135.98c-3.39,0-7.42-2.67-9.97-9.27h0s0,0,0,0l-.18-.48c-.05-.09-.1-.19-.12-.27-.38-1.45-1.39-3.79-2.46-6.27-2.71-6.29-4.57-10.95-3.85-13.5.78-2.74,2.65-4.84,5.14-5.77,2.47-.92,5.24-.55,7.59,1.01,2.37,1.57,4.01,6.29,5.74,11.28,1.16,3.34,2.36,6.8,3.6,8.46.17.23.23.51.18.77,2.52,7.13.17,12.25-3.52,13.65-.67.25-1.4.39-2.16.39ZM74.91,125.29s.04.08.06.11l.22.58s0,0,0,0c2.63,6.81,6.8,8.78,9.56,7.73,2.84-1.08,4.5-5.37,2.21-11.49-.04-.1-.06-.2-.06-.3-1.29-1.96-2.41-5.18-3.59-8.57-1.48-4.25-3.16-9.07-4.96-10.27-1.82-1.2-3.93-1.5-5.79-.8-1.88.7-3.31,2.31-3.91,4.44-.59,2.07,1.93,7.91,3.76,12.17,1.11,2.57,2.07,4.81,2.51,6.39Z" fill="#458bb9"/>
            </g>
            <g>
              <path d="M73.86,104.37c-1.86.4-3.05,2.26-3,4.09.03.91,3.78,10.56,4.39,11.31,2.44,2.98,7.05,1.28,7.01-2.53-.01-1.1-3.7-10.54-4.43-11.41-.98-1.17-2.45-1.79-3.97-1.46Z" fill="#fdfdfd"/>
              <path d="M78.36,122.29c-1.46,0-2.88-.66-3.88-1.89-.75-.91-4.59-10.82-4.62-11.91-.07-2.43,1.56-4.62,3.79-5.1h0c1.82-.39,3.67.28,4.95,1.79.9,1.07,4.65,10.75,4.67,12.04.02,2.17-1.25,4.04-3.24,4.77-.55.2-1.11.29-1.67.29ZM74.07,105.35h0c-1.43.31-2.24,1.81-2.21,3.09.14,1,3.58,9.85,4.18,10.72,1,1.21,2.36,1.29,3.29.95.94-.34,1.94-1.27,1.92-2.87-.1-1.08-3.52-9.87-4.2-10.78-.78-.93-1.91-1.35-2.99-1.12Z" fill="#458bb9"/>
            </g>
          </g>
        </g>
        <g>
          <path d="M94.7,159.67c-.4,0-.78-.24-.93-.63l-8.19-20.75c-.2-.51.05-1.09.56-1.3.51-.2,1.09.05,1.3.56l8.19,20.75c.2.51-.05,1.09-.56,1.3-.12.05-.24.07-.37.07Z" fill="#458bb9"/>
          <path d="M103.12,157.04c-.35,0-.68-.18-.87-.5l-12.52-21.71c-.28-.48-.11-1.09.37-1.37.48-.28,1.09-.11,1.37.37l12.52,21.71c.28.48.11,1.09-.37,1.37-.16.09-.33.13-.5.13Z" fill="#458bb9"/>
          <path d="M86.64,163.54c-.45,0-.87-.31-.97-.77l-5.71-24.52c-.12-.54.21-1.08.75-1.2.54-.13,1.07.21,1.2.75l5.71,24.52c.12.54-.21,1.08-.75,1.2-.08.02-.15.03-.23.03Z" fill="#458bb9"/>
          <path d="M81.49,167.55c-.3,0-.62-.03-.94-.11-1.64-.38-2.19-1.09-2.68-2.37-1.29-3.33-3.06-13.19-3.54-16.66-.46-3.37-.49-7.06-.51-10.63-.03-3.83-.06-7.79-.64-11.21-.02-.14-.06-.26-.09-.38l-.06-.23c-.38-1.45-1.39-3.79-2.46-6.27-2.71-6.29-4.57-10.95-3.85-13.5.78-2.74,2.65-4.84,5.14-5.77,2.47-.92,5.24-.55,7.59,1.01,2.37,1.57,4.01,6.29,5.74,11.28,1.16,3.34,2.36,6.8,3.6,8.46,1.87,2.51,4.16,5.01,6.37,7.43,2.27,2.48,4.61,5.05,6.58,7.69.1.13,9.78,15.23,9.87,16.87.06,1.15-.24,2.09-.88,2.8-1.25,1.37-3.38,1.45-5.1,1.52-.35.01-.68.03-.98.05-.11.01-.23,0-.35-.04-2,.24-3.56,1.3-4.96,2.41-.23.19-.6.56-.95.92-1,1.02-1.71,1.7-2.4,1.92-.81.26-1.86.24-3.07.22-1.28-.02-2.72-.05-3.84.29-1.18.36-2.18,1.22-3.16,2.05-1.25,1.07-2.64,2.26-4.43,2.26ZM74.61,101.93c-.7,0-1.4.12-2.06.37-1.88.7-3.31,2.31-3.91,4.44-.59,2.07,1.93,7.91,3.76,12.17,1.15,2.66,2.14,4.96,2.55,6.55l.05.19c.06.19.11.38.14.59.61,3.57.64,7.62.67,11.53.03,3.5.05,7.13.5,10.37.53,3.91,2.28,13.26,3.42,16.21.32.84.45.96,1.27,1.14,1.2.28,2.16-.47,3.62-1.72,1.08-.92,2.3-1.96,3.87-2.45,1.42-.44,3.03-.41,4.46-.38.99.02,1.93.03,2.43-.12.3-.12,1.13-.96,1.57-1.41.41-.42.8-.81,1.13-1.08,1.6-1.28,3.6-2.62,6.24-2.86h0c.11,0,.25,0,.38.04.25-.02.54-.03.84-.04,1.34-.05,3.02-.12,3.7-.87.26-.29.38-.7.37-1.27-.53-1.56-8.2-14.14-9.48-15.86-1.91-2.56-4.22-5.09-6.45-7.53-2.24-2.46-4.56-5-6.49-7.58-1.42-1.9-2.62-5.35-3.89-9-1.48-4.25-3.16-9.07-4.96-10.27-1.17-.77-2.46-1.17-3.73-1.17Z" fill="#458bb9"/>
          <path d="M83.3,135.98c-3.39,0-7.42-2.67-9.97-9.27l-.22-.56c-.2-.51.04-1.11.55-1.32.51-.2,1.08.02,1.29.53l.25.63c2.63,6.81,6.8,8.78,9.56,7.74,2.84-1.08,4.5-5.37,2.21-11.49-.08-.21-.17-.42-.26-.62-.24-.5-.03-1.09.47-1.33.5-.23,1.1-.03,1.33.47.12.25.23.51.33.77,2.75,7.34.39,12.63-3.37,14.06-.67.25-1.4.39-2.16.39Z" fill="#458bb9"/>
        </g>
      </g>
      <g id="Generatief_object-2" data-name="Generatief_object">
        <g>
          <g>
            <path d="M35.29,121.76l.1.12c-5.06,13.48,7.99,19.1,13.63,4.46l.1.06c-1.14,6.67-.21,14.93-1.16,21.87-.49,3.6-2.27,13.31-3.48,16.44-.42,1.09-.79,1.49-1.97,1.76-3.05.7-4.77-3.19-8.01-4.18-2.3-.7-5.43-.05-6.9-.51-.79-.25-2.24-2.03-3.03-2.66-1.73-1.38-3.47-2.44-5.71-2.65-.04,0-.1.06-.14.06-2.17-.18-6.24.25-6.05-3.32.05-1,8.45-14.68,9.67-16.32,3.86-5.17,9.13-10,12.94-15.12Z" fill="#ffab66"/>
            <path d="M41.79,167.55c-1.78,0-3.18-1.19-4.43-2.26-.98-.83-1.98-1.69-3.16-2.05-1.12-.34-2.56-.32-3.84-.29-1.21.02-2.25.04-3.07-.22-.69-.22-1.4-.9-2.4-1.92-.35-.36-.72-.73-.95-.92-1.39-1.11-2.94-2.16-4.93-2.41-.1.03-.22.04-.35.04-.32-.03-.65-.04-1-.05-1.72-.07-3.85-.15-5.1-1.52-.65-.71-.94-1.65-.88-2.8.09-1.65,9.77-16.74,9.87-16.87,1.97-2.64,4.31-5.2,6.57-7.69,2.21-2.42,4.5-4.92,6.37-7.43.18-.24.46-.39.77-.4.31-.02.59.12.79.34l.1.12c.24.28.31.66.18,1.01-2.29,6.12-.63,10.41,2.21,11.49,2.76,1.05,6.93-.92,9.56-7.73.11-.27.33-.49.6-.58.28-.1.58-.07.83.08l.1.06c.36.21.55.62.48,1.03-.58,3.41-.61,7.37-.64,11.21-.03,3.57-.05,7.26-.51,10.63-.48,3.47-2.25,13.33-3.54,16.66-.49,1.28-1.04,2-2.68,2.37-.33.08-.64.11-.94.11ZM31.37,160.93c1.14,0,2.34.06,3.42.39,1.57.48,2.79,1.53,3.87,2.45,1.46,1.25,2.42,2,3.62,1.72.81-.19.94-.3,1.27-1.14,1.14-2.95,2.89-12.31,3.42-16.22.44-3.24.47-6.87.5-10.37.02-2.18.03-4.39.15-6.55-3.05,4.37-6.94,5.46-9.79,4.38-3-1.14-5.11-4.74-4.45-9.87-1.23,1.43-2.52,2.84-3.78,4.23-2.23,2.45-4.54,4.98-6.45,7.53-1.28,1.72-8.95,14.29-9.48,15.86-.02.56.1.97.37,1.26.68.75,2.36.82,3.7.87.29.01.56.02.82.04.13-.04.26-.06.4-.04,2.64.24,4.64,1.58,6.24,2.86.33.26.72.66,1.13,1.08.45.45,1.27,1.29,1.58,1.41.5.16,1.44.14,2.43.12.34,0,.69-.01,1.04-.01Z" fill="#458bb9"/>
          </g>
          <g>
            <g>
              <path d="M49.02,126.34c-5.65,14.64-18.7,9.02-13.63-4.46l-.1-.12c3.07-4.11,5.42-17.07,9.09-19.5,4.4-2.91,9.78-.88,11.22,4.19,1.05,3.69-5.16,14.85-6.31,19.25l-.05.07c-.08.19-.15.38-.22.57Z" fill="#ffab66"/>
              <path d="M39.98,135.98c-.76,0-1.49-.13-2.16-.39-3.69-1.4-6.04-6.52-3.52-13.65-.05-.26.01-.54.18-.77,1.23-1.65,2.44-5.11,3.6-8.46,1.74-4.99,3.38-9.71,5.74-11.28,2.35-1.56,5.12-1.93,7.59-1.01,2.49.92,4.36,3.02,5.14,5.77.73,2.56-1.14,7.21-3.85,13.5-1.07,2.48-2.08,4.82-2.46,6.27-.03.11-.07.21-.14.3l-.17.45c-2.55,6.6-6.59,9.27-9.97,9.27ZM36.39,121.94c0,.1-.03.2-.06.3-2.29,6.12-.63,10.41,2.21,11.49,2.76,1.05,6.93-.92,9.56-7.73,0,0,0,0,0,0l.22-.58s.04-.09.06-.13c.44-1.59,1.4-3.81,2.51-6.38,1.84-4.26,4.35-10.09,3.76-12.17-.6-2.12-2.03-3.74-3.91-4.44-1.87-.69-3.98-.4-5.79.8-1.8,1.2-3.48,6.02-4.96,10.27-1.18,3.39-2.3,6.6-3.59,8.57Z" fill="#458bb9"/>
            </g>
            <g>
              <path d="M49.42,104.37c1.86.4,3.05,2.26,3,4.09-.03.91-3.78,10.56-4.39,11.31-2.44,2.98-7.05,1.28-7.01-2.53.01-1.1,3.7-10.54,4.43-11.41.98-1.17,2.45-1.79,3.97-1.46Z" fill="#fdfdfd"/>
              <path d="M44.92,122.29c-.56,0-1.12-.1-1.67-.29-1.99-.72-3.26-2.59-3.24-4.77.01-1.29,3.76-10.97,4.67-12.04,1.28-1.51,3.12-2.18,4.95-1.79h0c2.23.48,3.85,2.67,3.79,5.1-.03,1.09-3.87,11-4.61,11.91-1,1.22-2.42,1.89-3.88,1.89ZM48.62,105.28c-.89,0-1.76.42-2.41,1.19-.67.91-4.09,9.69-4.2,10.8-.01,1.57.99,2.5,1.93,2.84.94.34,2.3.26,3.31-.98.58-.85,4.02-9.71,4.17-10.75.03-1.23-.78-2.74-2.21-3.04-.2-.04-.4-.06-.59-.06Z" fill="#458bb9"/>
            </g>
          </g>
        </g>
        <g>
          <path d="M28.58,159.67c-.12,0-.25-.02-.37-.07-.51-.2-.77-.78-.56-1.3l8.19-20.75c.2-.51.79-.76,1.3-.56.51.2.77.78.56,1.3l-8.19,20.75c-.16.39-.53.63-.93.63Z" fill="#458bb9"/>
          <path d="M20.16,157.04c-.17,0-.34-.04-.5-.13-.48-.28-.64-.89-.37-1.37l12.52-21.71c.28-.48.89-.64,1.37-.37.48.28.64.89.37,1.37l-12.52,21.71c-.19.32-.52.5-.87.5Z" fill="#458bb9"/>
          <path d="M36.64,163.54c-.08,0-.15,0-.23-.03-.54-.12-.87-.66-.75-1.2l5.71-24.52c.12-.54.66-.88,1.2-.75.54.12.87.66.75,1.2l-5.71,24.52c-.11.46-.52.77-.97.77Z" fill="#458bb9"/>
          <path d="M41.79,167.55c-1.78,0-3.18-1.19-4.43-2.26-.98-.83-1.98-1.69-3.16-2.05-1.12-.34-2.56-.32-3.84-.29-1.21.02-2.25.04-3.07-.22-.69-.22-1.4-.9-2.4-1.92-.35-.36-.72-.73-.95-.92-1.39-1.11-2.96-2.17-4.96-2.41-.11.03-.23.05-.33.04-.32-.03-.65-.04-1-.05-1.72-.07-3.85-.15-5.1-1.52-.65-.71-.94-1.65-.88-2.8.09-1.65,9.77-16.74,9.87-16.87,1.97-2.64,4.31-5.2,6.57-7.69,2.21-2.42,4.5-4.92,6.37-7.43,1.23-1.65,2.44-5.11,3.6-8.46,1.74-4.99,3.38-9.71,5.74-11.28,2.35-1.56,5.12-1.93,7.59-1.01,2.49.92,4.36,3.02,5.14,5.77.73,2.56-1.14,7.21-3.85,13.5-1.07,2.48-2.08,4.82-2.46,6.27l-.06.23c-.03.12-.07.24-.09.38-.58,3.41-.61,7.37-.64,11.2-.03,3.57-.05,7.26-.51,10.63-.48,3.47-2.25,13.33-3.54,16.66-.49,1.28-1.04,2-2.68,2.37-.33.08-.64.11-.94.11ZM31.37,160.93c1.14,0,2.33.06,3.42.39,1.57.48,2.79,1.53,3.87,2.45,1.46,1.25,2.42,2,3.62,1.72.81-.19.94-.3,1.27-1.14,1.14-2.95,2.89-12.31,3.42-16.22.44-3.24.47-6.87.5-10.37.03-3.91.06-7.95.67-11.53.04-.21.09-.4.14-.59l.05-.19c.42-1.6,1.41-3.89,2.55-6.55,1.84-4.26,4.35-10.09,3.76-12.17-.6-2.12-2.03-3.74-3.91-4.44-1.87-.69-3.98-.4-5.79.8-1.8,1.2-3.48,6.02-4.96,10.27-1.27,3.65-2.47,7.09-3.89,8.99-1.93,2.59-4.25,5.13-6.49,7.58-2.23,2.45-4.54,4.98-6.45,7.53-1.28,1.72-8.95,14.29-9.48,15.86-.02.56.1.97.37,1.26.68.75,2.36.82,3.7.87.29.01.56.02.82.04.13-.04.26-.06.4-.04h0c2.64.24,4.64,1.58,6.24,2.86.33.26.72.66,1.13,1.08.45.45,1.27,1.29,1.58,1.41.5.16,1.44.14,2.43.12.34,0,.69-.01,1.04-.01Z" fill="#458bb9"/>
          <path d="M39.98,135.98c-.76,0-1.49-.13-2.16-.39-3.76-1.43-6.13-6.72-3.37-14.06.1-.26.21-.52.33-.77.24-.5.84-.71,1.33-.47.5.24.71.84.47,1.33-.1.2-.18.4-.26.61-2.29,6.12-.63,10.41,2.21,11.49,2.76,1.05,6.93-.92,9.56-7.73l.22-.58.95.33.93.38-.23.6c-2.55,6.6-6.58,9.27-9.97,9.27Z" fill="#458bb9"/>
        </g>
      </g>
      <g>
        <ellipse cx="61.67" cy="93.4" rx="38.73" ry="38.67" fill="#b5d9fc"/>
        <path d="M66.76,17.21l30.16,60c1.68,3.29-1.03,7.03-5.09,7.03H31.58c-4.06,0-6.7-3.75-5.09-7.03l30.09-60c1.93-3.92,8.18-3.92,10.12,0h.06Z" fill="#b5d9fc"/>
      </g>
      <g id="Generatief_object-3" data-name="Generatief_object">
        <g>
          <g>
            <path d="M98.15,72.41c.16,1.8.02,4.9-.07,6.79-.24,5.32-1.33,9.39-7.03,11.44-2.8,1.01-19.25.84-21.56-.88-3.31-2.46-5.98-11.97-10.19-7.33-2.62,2.89-2.89,6.78-7.47,8.39-1.38.48-15.58.54-17.49.27-6.84-.96-8.72-5.69-9.03-11.71-.11-2.14-.19-4.84,0-6.96.44-4.99,2.7-9.15,8.18-9.85l56.54.14c5.29.83,7.66,4.68,8.12,9.71Z" fill="#94cbf7"/>
            <path d="M41.6,94.92c-3.72,0-7.05-.09-7.76-.19-7.62-1.06-11.73-6.17-12.19-15.17-.16-3.07-.16-5.58,0-7.47.66-7.53,4.81-12.34,11.38-13.17.16-.02.32-.05.47-.03l56.54.14c.19,0,.37.02.56.04,6.47,1.01,10.55,5.75,11.21,13.01h0c.18,2.03.04,5.17-.05,7.24-.26,5.75-1.59,11.95-9.46,14.79-3.1,1.12-21.21,1.42-25-1.39-1.61-1.2-2.83-3.07-4.01-4.88-.46-.7-1.12-1.73-1.68-2.42-.43.58-.81,1.26-1.23,2.01-1.27,2.26-3.01,5.35-7.33,6.87-1.38.48-6.73.64-11.45.64ZM71.54,86.69c2.8,1,15.86,1.2,18.31.48,3.29-1.19,4.32-3.02,4.56-8.14.08-1.7.22-4.76.08-6.29-.44-4.85-2.73-5.99-4.77-6.37l-55.99-.13c-1.43.2-4.26.86-4.76,6.49-.14,1.55-.13,3.72,0,6.45.33,6.27,2.4,7.78,5.87,8.26,1.72.22,13.77.14,15.94-.17,1.5-.58,2.07-1.51,3.17-3.46.67-1.2,1.44-2.56,2.62-3.86,2.01-2.22,4.07-2.55,5.44-2.44,3.51.28,5.6,3.48,7.43,6.31.65,1,1.52,2.34,2.09,2.87ZM50.63,87.34s0,0-.01,0c0,0,0,0,.01,0ZM71.39,86.63s0,0,0,0Z" fill="#ffab66"/>
          </g>
          <g>
            <g>
              <path d="M32.99,65.62l57.89.24c4.41,1.49,4.26,5.84,4.38,9.61.17,5.19.26,11.47-6.25,12.63-1.47.26-14.45.31-15.96.07-5.59-.89-5.59-10.61-11.88-9.98-5.38.53-5.58,8.5-10.19,9.88-1.2.36-16.67.15-17.83-.27-1.45-.53-2.46-1.25-3.43-2.48-2.32-2.94-3.21-19.31,3.26-19.69Z" fill="#d0e6f7"/>
              <path d="M79.79,90.82c-3.3,0-6.34-.06-7.13-.18-3.76-.6-5.62-3.72-7.13-6.23-1.78-2.98-2.59-3.89-4.12-3.73-1.53.15-2.42,1.57-3.74,3.86-1.35,2.34-2.88,5-5.98,5.93-1.49.45-17.5.38-19.4-.32-1.89-.69-3.29-1.7-4.53-3.28-2.46-3.12-3.25-13.58-.73-19.21,1.68-3.74,4.36-4.44,5.8-4.53.05,0,.1,0,.16,0l57.9.24c.27,0,.54.05.79.13,5.8,1.96,5.96,7.54,6.06,11.23l.02.66c.16,5.09.44,13.62-8.31,15.17-.93.17-5.5.26-9.66.26ZM61.77,75.65c4.36,0,6.49,3.55,8.06,6.18,1.35,2.26,2.27,3.65,3.62,3.86,1.49.2,13.67.15,15.15-.06,3.82-.68,4.38-3.66,4.17-10.09l-.02-.69c-.11-3.81-.37-5.67-2.32-6.51l-57.35-.24c-.25.02-.82.17-1.43,1.48-1.99,4.23-1,12.74.05,14.17.64.81,1.24,1.26,2.19,1.63,1.9.3,14.54.49,16.48.24,1.14-.41,2.04-1.96,2.99-3.6,1.52-2.64,3.42-5.93,7.58-6.34.29-.03.57-.04.84-.04ZM34.02,85.44h.01-.01ZM34,85.44s0,0,.01,0c0,0,0,0-.01,0Z" fill="#458bb9"/>
            </g>
            <path d="M46.65,68.14c.22-.06,3.32-.05,3.49,0,.08.12.43.39.44.45.03,1.2-14.96,14.78-16.48,17.07-1.39.31-2.27-1.13-2.01-2.41.22-1.04,13.56-14.85,14.56-15.11Z" fill="#fefefe"/>
            <path d="M36.19,68.15c.33-.08,3.9-.11,3.95.25l-9.5,9.16c-.33-.15-.35-3.22-.25-3.62s5.4-5.7,5.8-5.8Z" fill="#fefefe"/>
          </g>
        </g>
      </g>
      <path d="M61.49,104.69c-.33,0-.65-.01-.98-.04-3.06-.23-5.37-1.49-6.77-2.5-.45-.32-.55-.95-.23-1.4.32-.45.95-.55,1.4-.23,1.19.86,3.16,1.93,5.75,2.13.95.07,1.91.02,2.85-.16,2.39-.45,4.15-1.59,4.98-2.23.44-.34,1.07-.25,1.4.18.34.44.25,1.07-.18,1.4-.98.75-3.03,2.08-5.83,2.61-.79.15-1.59.22-2.39.22Z" fill="#254b60"/>
      <g>
        <path d="M164.92,102.53c-4,7.12-15.84,12.16-28.96,15.28l-7.2-42.64c-1.36.4-2.96.64-4.16.88-1.2-2.8-1.6-5.04-1.84-6.4-.16-.72-.48-2.4-.4-5.36,3.44-.72,9.44-2,10.72-2.16,9.28-1.6,17.92-1.12,23.36,2,4.4,2.64,9.52,9.52,10.72,17.52,1.2,8.24.32,16-2.24,20.88ZM149.08,75.17c-2-1.12-4.88-1.6-7.6-1.68,1.76,10,3.04,17.28,5.12,27.92,1.68-.8,5.76-1.52,6.64-4.8,1.12-3.04,1.6-7.2.32-14.16-.64-3.92-3.28-6.48-4.48-7.28Z" fill="#254b60"/>
        <path d="M172.92,90.13c0-.64-.08-1.44-.08-2.16-.24-4.32-1.84-23.36-2.32-28.48,4.8-1.36,11.84-1.2,14.4-.8.56,3.92.16,7.84.56,12.24.4,4.8.48,12.4.96,19.76.32,5.12.88,18,1.28,23.2l-13.92.32-.32-11.36c-.24-5.12-.32-9.28-.56-12.72Z" fill="#254b60"/>
        <path d="M231.88,107.41c0,3.12.16,7.12.24,9.52-2.48,1.52-4.64,2.64-6.8,3.52-2.56.96-5.28,1.36-8.08,1.36-7.92,0-14.64-3.52-19.92-10.8-2.4-3.36-4.56-10.08-4.56-15.92,0-9.04.08-15.28,4.08-24.16,4.8-10,14.4-16.32,21.28-16.32,9.2,0,16.24,4.24,17.2,12.4l.4,5.44c-4.96,1.36-10.08,3.68-15.04,2.96.64-2.96.64-4.88-.16-7.44-.24-.64-1.36-.96-2.48-.96-2.08,0-6.72,2.4-9.04,9.2-2.24,6.4-2.56,11.44-2.56,17.44.24,9.36,6.56,15.6,11.84,15.28h.16v-1.6c0-4.08,0-5.76.24-13.2-.24,0-.24.08-.64.08l-6.72.56.16-11.92c9.6-1.28,13.68-.32,26.88-2.16.4,4.56.64,6.72.56,8v4.48h-6.8c-.16,5.52-.24,10.24-.24,14.24Z" fill="#254b60"/>
        <path d="M247.08,90.13c0-.64-.08-1.44-.08-2.16-.24-4.32-1.84-23.36-2.32-28.48,4.8-1.36,11.84-1.2,14.4-.8.56,3.92.16,7.84.56,12.24.4,4.8.48,12.4.96,19.76.32,5.12.88,18,1.28,23.2l-13.92.32-.32-11.36c-.24-5.12-.32-9.28-.56-12.72Z" fill="#254b60"/>
      </g>
      <g>
        <path d="M309.55,99.69c-4,7.12-15.84,12.16-28.96,15.28l-7.2-42.64c-1.36.4-2.96.64-4.16.88-1.2-2.8-1.6-5.04-1.84-6.4-.16-.72-.48-2.4-.4-5.36,3.44-.72,9.44-2,10.72-2.16,9.28-1.6,17.92-1.12,23.36,2,4.4,2.64,9.52,9.52,10.72,17.52,1.2,8.24.32,16-2.24,20.88ZM293.71,72.33c-2-1.12-4.88-1.6-7.6-1.68,1.76,10,3.04,17.28,5.12,27.92,1.68-.8,5.76-1.52,6.64-4.8,1.12-3.04,1.6-7.2.32-14.16-.64-3.92-3.28-6.48-4.48-7.28Z" fill="#254b60"/>
        <path d="M317.55,87.29c0-.64-.08-1.44-.08-2.16-.24-4.32-1.84-23.36-2.32-28.48,4.8-1.36,11.84-1.2,14.4-.8.56,3.92.16,7.84.56,12.24.4,4.8.48,12.4.96,19.76.32,5.12.88,18,1.28,23.2l-13.92.32-.32-11.36c-.24-5.12-.32-9.28-.56-12.72Z" fill="#254b60"/>
        <path d="M379.39,64.25c-1.12,2.72-2.8,8.32-4.16,12-2.4,6.32-4.08,11.28-6.96,18.72-1.44,3.68-4.88,13.28-8.16,20.4-1.68,0-8.64-1.04-10-.72l-8.64-23.2c-.8-2.48-4.48-15.84-8.8-30.72,3.28-2.56,7.6-3.6,12.96-3.84l1.36,4.88c2.32,7.76,3.52,14.56,5.76,22.32.16.72,1.6,5.44,2.24,7.28l1.12,3.28c1.68-4.32,3.12-9.36,5.28-15.68,1.68-5.04,4-13.12,5.36-18.64.16-.72,1.28-3.44,1.6-4.24,5.36.4,8.96,1.44,10.64,2.88l2.16,1.12-1.76,4.16Z" fill="#254b60"/>
        <path d="M384.83,114.17l-.56-25.12c-1.68.08-4.88.64-4.88.64l-.08-11.6c.8,0,4-.48,4.72-.56-.08-7.12-.32-15.84-.4-22.32,1.52.08,7.44-.16,9.04-.16,1.36,0,11.36-.56,22.88-1.28,1.2,3.12.96,4.96.96,6.24,0,.96,0,1.68-.64,5.12-6.48.56-7.44.56-8.24.64-3.52.24-4.32.4-10.16.64,0,3.2,0,6.48.08,9.6,4.72-.64,12.48-1.6,16.72-2.48.8,2.8,1.36,7.2.8,11.36-10.56,1.92-11.76,2.24-17.28,2.88l.24,8.96c4.96-1.36,11.84-2.88,18.48-3.92,1.04,3.76.96,9.52.72,12-6.64,1.36-22.64,5.04-32.4,9.36Z" fill="#254b60"/>
      </g>
    </g>
  </g>
</svg>